# xmcd
#
# Track frame offsets:
#	183
#	13205
#	29843
#	40378
#	56188
#	72948
#	89053
#	100263
#	115285
#	134633
#	150170
#	180165
#	204278
#	215838
#	226298
#
# Disc length: 3283 seconds
# Revision: 4
# Processed by: cddbd v1.5.2PL0 Copyright (c) Steve Scherf et al.
# Submitted via: dBpowerAMP V12.0
#
DISCID=da0cd10f
DTITLE=Various Artist - Cookin' with the Blues, Disc 3
DYEAR=1992
DGENRE=Blues
TTITLE0=Muddy Waters - Hoochie Coochie Man
TTITLE1=Buddy Guy - Messin' With The Kid
TTITLE2=Paul DeLay Band - Harpoon man
TTITLE3=Clarence Edwards - Rocky Mountain
TTITLE4=Charlie Musselwhite - Trouble No More
TTITLE5=U. P. Wilson - 7 Comes 11
TTITLE6=Ike Turner - Ho Ho
TTITLE7=King Biscuit Boy with The Ronnie Hawkins Band - Neighbour Neighbour
TTITLE8=King Curtis - Home Cookin'
TTITLE9=Louisiana Red - Lightnin' Bug
TTITLE10=Eddie Clearwater - Came Up The Hard Way
TTITLE11=Troyce Key - New Car
TTITLE12=Junior Wells - Cha Cha Cha In Blues
TTITLE13=Mississippi Fred McDowell with Jo Ann Kelly - Glory Hallelujah
TTITLE14=Earl Hooker - The End Of The Blues
EXTD=
EXTT0=
EXTT1=
EXTT2=
EXTT3=
EXTT4=
EXTT5=
EXTT6=
EXTT7=
EXTT8=
EXTT9=
EXTT10=
EXTT11=
EXTT12=
EXTT13=
EXTT14=
PLAYORDER=
